<svg xmlns="http://www.w3.org/2000/svg" viewBox="0 0 301.81 194.33">
  <defs>
    <style>
      .cls-1 {
        fill: #5785c4;

        fill: #FFFFFF;
      }

      .cls-2 {
        opacity: 0.5;
      }
    </style>
  </defs>
  <title>ls-logo</title>
  <g id="Layer_2" data-name="Layer 2">
    <g id="Layer_3" data-name="Layer 3">
      <g>
        <polygon class="cls-1" points="116.1 13.06 148.68 0.12 148.68 76.75 128.77 78.96 128.83 36.05 130.64 35.53 130.61 28.06 117.73 24.77 113.52 26.2 113.52 17.45 116.07 16.5 116.1 13.06"/>
        <g class="cls-2">
          <polygon class="cls-1" points="148.68 0.12 152.1 1.41 152.1 73.24 152.1 77.11 148.68 76.75 148.68 0.12"/>
        </g>
        <polygon class="cls-1" points="46.7 31.5 99.32 7.83 116.1 13.06 116.07 16.5 99.26 11.49 46.7 34.3 46.7 31.5"/>
        <path class="cls-1" d="M55.57,36.15l-8.9-1.87L99.24,11.21h.09l17.52,5.22-8.59,3.27-9.73-2.63-43,17.35Zm-7.27-2,6.77,1.42V34.16l.16-.06L98.51,16.62h.08l9.65,2.61,7.06-2.69-16-4.77Z"/>
        <path class="cls-1" d="M55.07,46.39V34.13l.16-.06L98.51,16.59l.88.24V31.28l-.17.06Zm.5-11.92V45.72L98.89,30.95V17.21l-.35-.09Z"/>
        <g class="cls-2">
          <polygon class="cls-1" points="99.39 17.36 108.26 19.75 113.52 17.75 113.52 26.2 99.39 31.01 99.39 17.36"/>
        </g>
        <polygon class="cls-1" points="117.73 24.77 130.61 28.06 130.64 35.53 117.73 32.53 57.24 51.17 57.21 95.37 117.82 92.55 117.82 100.35 51.86 101.23 51.86 47.24 117.73 24.77"/>
        <g class="cls-2">
          <polygon class="cls-1" points="130.72 35.57 128.46 36.37 118.39 33.98 59.67 51.48 59.63 95.26 57.21 95.37 57.24 51.19 117.73 32.53 130.72 35.57"/>
        </g>
        <polygon class="cls-1" points="59.66 64.94 118.74 51.76 118.74 53.29 59.66 66.08 59.66 64.94"/>
        <g class="cls-2">
          <polygon class="cls-1" points="118.74 51.76 128.8 53.48 128.8 55.01 118.74 53.29 118.74 51.76"/>
        </g>
        <polygon class="cls-1" points="59.64 81.49 118.74 73.96 118.74 75.52 59.64 82.68 59.64 81.49"/>
        <g class="cls-2">
          <polygon class="cls-1" points="118.74 73.96 128.77 74.98 128.77 76.45 118.74 75.52 118.74 73.96"/>
        </g>
        <polygon class="cls-1" points="55.41 39.13 55.23 38.66 99.12 22.03 99.2 22.05 108.38 24.51 113.68 22.68 113.84 23.15 108.4 25.03 108.32 25.01 99.15 22.56 55.41 39.13"/>
        <polygon class="cls-1" points="254.68 82.68 253.68 82.68 253.68 40.58 148.38 0.93 148.73 0 254.68 39.88 254.68 82.68"/>
        <g>
          <path class="cls-1" d="M8.93,150.58H25.48v5.69h-24v-37H8.89Z"/>
          <path class="cls-1" d="M55.36,148.3h-12l-2.49,8H33.13l12.47-37h7.59l12.42,37H57.87ZM45.2,142.49h8.35l-4.09-13h-.15Z"/>
          <path class="cls-1" d="M102.56,144.39h.15l4.9-25.09h7.64l-8.63,37H99.7l-6.8-24.35h-.15L86,156.3H79.09l-8.63-37H78.1L83,144.36h.15l6.65-25.06h6Z"/>
          <path class="cls-1" d="M131.8,141.49v14.78h-7.41v-37h12.8q6.32,0,9.89,2.88a9.75,9.75,0,0,1,3.57,8,8.11,8.11,0,0,1-1.51,4.91,10.52,10.52,0,0,1-4.41,3.34,8,8,0,0,1,4.71,3.22,10.23,10.23,0,0,1,1.43,5.59v2.72a13.44,13.44,0,0,0,.42,3.24,4.45,4.45,0,0,0,1.41,2.55v.53h-7.64a4.1,4.1,0,0,1-1.31-2.69,23.63,23.63,0,0,1-.29-3.63v-2.62a5.88,5.88,0,0,0-1.51-4.3,5.73,5.73,0,0,0-4.28-1.54Zm0-5.71h5.26a7,7,0,0,0,4.65-1.32,4.89,4.89,0,0,0,1.52-3.91,5.38,5.38,0,0,0-1.54-4,6.2,6.2,0,0,0-4.51-1.5H131.8Z"/>
          <path class="cls-1" d="M183.85,140H170.14v10.56h16.3v5.69H162.7v-37h23.66V125H170.11v9.29h13.71Z"/>
          <path class="cls-1" d="M226.7,156.27h-7.41l-14.9-24.93h-.15v24.91h-7.41v-37h7.41l14.9,24.91h.15V119.3h7.41Z"/>
          <path class="cls-1" d="M266.46,144l.05.15q.1,5.92-3.61,9.27t-10.2,3.35A14.17,14.17,0,0,1,242,152.52a15.35,15.35,0,0,1-4.09-11.06v-7.34a15.63,15.63,0,0,1,4-11.06,13.59,13.59,0,0,1,10.46-4.3q6.75,0,10.56,3.3t3.71,9.29l-.05.15h-7.21q0-3.56-1.71-5.29t-5.29-1.74a6,6,0,0,0-5.19,2.68,11.85,11.85,0,0,0-1.87,6.92v7.39a11.5,11.5,0,0,0,2,7,6.4,6.4,0,0,0,5.42,2.66,6.51,6.51,0,0,0,5-1.74q1.64-1.74,1.64-5.34Z"/>
          <path class="cls-1" d="M298.14,140H284.43v10.56H300.7v5.69H277v-37H300.7V125H284.45v9.29h13.71Z"/>
        </g>
        <g>
          <path class="cls-1" d="M14.55,188.21a3.69,3.69,0,0,0-1.43-3A14.63,14.63,0,0,0,8.25,183a16.27,16.27,0,0,1-5.71-2.57,5,5,0,0,1-2-4.18,5.4,5.4,0,0,1,2.19-4.42,8.74,8.74,0,0,1,5.59-1.73,8.28,8.28,0,0,1,5.75,2,6.2,6.2,0,0,1,2.11,5v.1h-1.8a5,5,0,0,0-1.68-3.85,6.21,6.21,0,0,0-4.34-1.53,6.5,6.5,0,0,0-4.29,1.3,4,4,0,0,0-1.55,3.18,3.63,3.63,0,0,0,1.41,2.94,14.42,14.42,0,0,0,5,2.15A16.24,16.24,0,0,1,14.59,184a5.12,5.12,0,0,1,2,4.19,5.21,5.21,0,0,1-2.28,4.41,9.48,9.48,0,0,1-5.74,1.67,10.44,10.44,0,0,1-6-1.76A5.67,5.67,0,0,1,0,187.41v-.1H1.81a4.5,4.5,0,0,0,2,4,8.39,8.39,0,0,0,4.67,1.33,7.27,7.27,0,0,0,4.38-1.23A3.78,3.78,0,0,0,14.55,188.21Z"/>
          <path class="cls-1" d="M66.49,172.1h-8v21.82H56.57V172.1H48.3v-1.64H66.48Z"/>
          <path class="cls-1" d="M110.57,187.38h-10.3l-2.37,6.54h-2l8.62-23.46h1.82l8.56,23.46h-2Zm-9.68-1.72h9.06l-4.45-12.44h-.1Z"/>
          <path class="cls-1" d="M161.7,172.1h-8v21.82h-1.92V172.1h-8.27v-1.64H161.7Z"/>
          <path class="cls-1" d="M197.22,193.92h-1.93V170.46h1.93Z"/>
          <path class="cls-1" d="M250.23,184.1a10.66,10.66,0,0,1-2.49,7.35,8.49,8.49,0,0,1-6.68,2.8,8.31,8.31,0,0,1-6.58-2.8A10.74,10.74,0,0,1,232,184.1v-3.82a10.8,10.8,0,0,1,2.45-7.35,8.27,8.27,0,0,1,6.57-2.82,8.49,8.49,0,0,1,6.69,2.82,10.67,10.67,0,0,1,2.5,7.35Zm-1.92-3.85a9.28,9.28,0,0,0-1.93-6.12,6.56,6.56,0,0,0-5.34-2.32,6.33,6.33,0,0,0-5.22,2.32,9.47,9.47,0,0,0-1.87,6.12v3.85a9.49,9.49,0,0,0,1.88,6.16,6.35,6.35,0,0,0,5.23,2.32,6.54,6.54,0,0,0,5.34-2.31,9.38,9.38,0,0,0,1.91-6.16Z"/>
          <path class="cls-1" d="M301.81,193.92h-1.93l-13.33-20.08h-.1v20.08h-1.93V170.46h1.93l13.33,20h.1v-20h1.93Z"/>
        </g>
      </g>
    </g>
  </g>
</svg>
