<svg id="Layer_3" data-name="Layer 3" xmlns="http://www.w3.org/2000/svg" viewBox="0 0 1594.46 663.68">
  <defs>
    <style>
      .cls-1, .cls-14 {
        fill: #5785c4;
      }

      .cls-2 {
        fill: #686b6b;
      }

      .cls-10, .cls-3, .cls-4, .cls-7 {
        fill: #231f20;
      }

      .cls-14, .cls-18, .cls-4 {
        opacity: 0.5;
      }

      .cls-15, .cls-16, .cls-5, .cls-6 {
        fill: none;
        stroke-miterlimit: 10;
      }

      .cls-5, .cls-6 {
        stroke: #000;
      }

      .cls-15, .cls-5 {
        stroke-width: 0.5px;
      }

      .cls-6 {
        stroke-width: 0.75px;
      }

      .cls-7 {
        font-size: 52px;
        font-family: Roboto-Bold, Roboto;
        font-weight: 700;
        letter-spacing: 0.11em;
      }

      .cls-8 {
        letter-spacing: 0.08em;
      }

      .cls-9 {
        letter-spacing: 0.1em;
      }

      .cls-10 {
        font-size: 33px;
        font-family: Roboto-Regular, Roboto;
        letter-spacing: 0.89em;
      }

      .cls-11 {
        letter-spacing: 0.85em;
      }

      .cls-12 {
        letter-spacing: 0.83em;
      }

      .cls-13 {
        letter-spacing: 0.89em;
      }

      .cls-15, .cls-16 {
        stroke: #5785c4;
      }

      .cls-16 {
        stroke-width: 2px;
      }

      .cls-17 {
        fill: #fff;
      }
    </style>
  </defs>
  <title>ls-logo_white</title>
  <g>
    <path class="cls-1" d="M582.93-118.53h16.3v6.17h-24v-37.27h7.68Z" transform="translate(465.77 150.14)"/>
    <path class="cls-1" d="M630.4-120H616.94l-2.56,7.68h-8.16l13.87-37.27h7.12l13.95,37.27H633ZM619-126.26h9.32l-4.68-13.95Z" transform="translate(465.77 150.14)"/>
    <path class="cls-1" d="M677.9-123.11l5-26.52h7.65l-8.27,37.27h-7.73l-6.07-24.93-6.07,24.93h-7.73l-8.27-37.27h7.65l5,26.47,6.14-26.47h6.5Z" transform="translate(465.77 150.14)"/>
    <path class="cls-1" d="M713.76-126h-6.12v13.64H700v-37.27h13.85q6.6,0,10.19,2.94a10.16,10.16,0,0,1,3.58,8.32,11.47,11.47,0,0,1-1.65,6.36,11.26,11.26,0,0,1-5,4.06L729-112.72v.36h-8.24Zm-6.12-6.22h6.19a6.34,6.34,0,0,0,4.48-1.47,5.26,5.26,0,0,0,1.59-4.06,5.63,5.63,0,0,0-1.5-4.15,6.23,6.23,0,0,0-4.59-1.51h-6.17Z" transform="translate(465.77 150.14)"/>
    <path class="cls-1" d="M761.08-128.51H746.34v10h17.3v6.17h-25v-37.27h24.93v6.22H746.34v8.88h14.74Z" transform="translate(465.77 150.14)"/>
    <path class="cls-1" d="M803.69-112.36H796l-14.95-24.52v24.52h-7.68v-37.27h7.68l15,24.57v-24.57h7.65Z" transform="translate(465.77 150.14)"/>
    <path class="cls-1" d="M844.89-124.78a13.19,13.19,0,0,1-4.44,9.47q-4,3.46-10.56,3.46-7.17,0-11.27-4.83t-4.11-13.25v-2.28a22.34,22.34,0,0,1,1.89-9.47,14.2,14.2,0,0,1,5.41-6.28,15.17,15.17,0,0,1,8.18-2.19q6.45,0,10.39,3.46a14.17,14.17,0,0,1,4.56,9.7h-7.68q-.28-3.61-2-5.23a7.44,7.44,0,0,0-5.26-1.62,6.52,6.52,0,0,0-5.75,2.75q-1.91,2.75-2,8.54v2.82q0,6,1.83,8.83a6.4,6.4,0,0,0,5.77,2.79,7.58,7.58,0,0,0,5.31-1.63,7.34,7.34,0,0,0,2-5Z" transform="translate(465.77 150.14)"/>
    <path class="cls-1" d="M877.6-128.51H862.85v10h17.3v6.17h-25v-37.27H880.1v6.22H862.85v8.88H877.6Z" transform="translate(465.77 150.14)"/>
    <path class="cls-2" d="M924.5-121.3a7.05,7.05,0,0,0-1.11-4,9.44,9.44,0,0,0-3.51-2.92,37.85,37.85,0,0,0-7.23-2.6,34,34,0,0,1-7.26-2.69,9.57,9.57,0,0,1-3.54-3.15,8,8,0,0,1-1.13-4.35,7.81,7.81,0,0,1,3.43-6.59,14.72,14.72,0,0,1,8.93-2.52,14.46,14.46,0,0,1,6.44,1.4,10.46,10.46,0,0,1,4.42,3.92,10.61,10.61,0,0,1,1.56,5.7h-1.38A8.82,8.82,0,0,0,921-146a11.54,11.54,0,0,0-8-2.73,13.29,13.29,0,0,0-7.95,2.19,6.55,6.55,0,0,0-3,5.49,6.5,6.5,0,0,0,2.64,5.4q2.63,2,8.7,3.62t8.88,3.65a8.33,8.33,0,0,1,3.58,7.06,8.19,8.19,0,0,1-1.59,5,10.1,10.1,0,0,1-4.5,3.34,17.38,17.38,0,0,1-6.55,1.18A18.73,18.73,0,0,1,906-113.2a10.33,10.33,0,0,1-4.85-3.83,10.46,10.46,0,0,1-1.62-5.86h1.38a8.34,8.34,0,0,0,3.43,7.12,14.66,14.66,0,0,0,8.93,2.53,13.65,13.65,0,0,0,8.06-2.24A6.84,6.84,0,0,0,924.5-121.3Z" transform="translate(465.77 150.14)"/>
    <path class="cls-2" d="M963.22-148.25H949.65v35.88h-1.38v-35.88H934.71v-1.38h28.51Z" transform="translate(465.77 150.14)"/>
    <path class="cls-2" d="M992.6-123.5H974.35l-4.15,11.13h-1.51l13.95-37.27h1.69l14,37.27h-1.51Zm-17.74-1.38h17.22L983.49-148Z" transform="translate(465.77 150.14)"/>
    <path class="cls-2" d="M1031-148.25h-13.57v35.88h-1.38v-35.88H1002.5v-1.38H1031Z" transform="translate(465.77 150.14)"/>
    <path class="cls-2" d="M1045.18-112.36h-1.38v-37.27h1.38Z" transform="translate(465.77 150.14)"/>
    <path class="cls-2" d="M1088.08-128.21a20.12,20.12,0,0,1-1.73,8.56,13.22,13.22,0,0,1-4.93,5.76,13.44,13.44,0,0,1-7.37,2,12.84,12.84,0,0,1-10.19-4.48q-3.89-4.48-3.89-12.08v-5.37a20.15,20.15,0,0,1,1.73-8.55,13.19,13.19,0,0,1,4.94-5.77,13.46,13.46,0,0,1,7.36-2,13.51,13.51,0,0,1,7.38,2,13.26,13.26,0,0,1,5,5.78,20,20,0,0,1,1.74,8.54Zm-1.38-5.63q0-6.76-3.43-10.84a11.47,11.47,0,0,0-9.26-4.08,11.42,11.42,0,0,0-9.19,4.06q-3.43,4.06-3.43,11v5.45a18.89,18.89,0,0,0,1.55,7.87,11.9,11.9,0,0,0,4.42,5.26,12.12,12.12,0,0,0,6.7,1.84,11.42,11.42,0,0,0,9.24-4.07q3.4-4.07,3.4-11.11Z" transform="translate(465.77 150.14)"/>
    <path class="cls-2" d="M1128.69-112.36h-1.38l-24.06-34.91v34.91h-1.41v-37.27h1.41l24.06,34.83v-34.83h1.38Z" transform="translate(465.77 150.14)"/>
  </g>
  <g>
    <polygon class="cls-3" points="119.24 205.92 151.82 192.98 151.82 269.61 131.9 271.82 131.96 228.91 133.78 228.39 133.75 220.92 120.87 217.63 116.66 219.07 116.66 210.32 119.21 209.37 119.24 205.92"/>
    <polygon class="cls-4" points="151.82 192.98 155.23 194.27 155.23 266.11 155.23 269.98 151.82 269.61 151.82 192.98"/>
    <polygon class="cls-3" points="49.83 224.37 102.45 200.7 119.24 205.92 119.21 209.37 102.39 204.35 49.83 227.16 49.83 224.37"/>
    <polygon class="cls-5" points="50.62 227.07 58.45 228.72 58.45 227.16 101.66 209.72 111.38 212.35 119.21 209.37 102.39 204.35 50.62 227.07"/>
    <polygon class="cls-5" points="58.45 227.16 58.45 238.91 102.27 223.97 102.27 209.88 101.66 209.72 58.45 227.16"/>
    <polygon class="cls-4" points="102.53 210.23 111.4 212.61 116.66 210.61 116.66 219.07 102.52 223.88 102.53 210.23"/>
    <polygon class="cls-3" points="120.87 217.63 133.75 220.92 133.78 228.39 120.87 225.4 60.37 244.04 60.34 288.24 120.96 285.41 120.96 293.22 54.99 294.1 54.99 240.1 120.87 217.63"/>
    <polygon class="cls-4" points="133.85 228.44 131.59 229.24 121.53 226.85 62.81 244.34 62.76 288.13 60.34 288.24 60.37 244.05 120.87 225.4 133.85 228.44"/>
    <polygon class="cls-3" points="62.8 257.81 121.88 244.62 121.88 246.16 62.8 258.95 62.8 257.81"/>
    <polygon class="cls-4" points="121.88 244.62 131.94 246.34 131.94 247.88 121.88 246.16 121.88 244.62"/>
    <polygon class="cls-3" points="62.78 274.36 121.88 266.82 121.88 268.39 62.78 275.54 62.78 274.36"/>
    <polygon class="cls-4" points="121.88 266.82 131.91 267.85 131.91 269.32 121.88 268.39 121.88 266.82"/>
    <polyline class="cls-5" points="58.45 231.76 102.27 215.16 111.52 217.63 116.89 215.78"/>
    <polyline class="cls-6" points="151.69 193.33 257.31 233.09 257.31 275.54"/>
    <text class="cls-7" transform="translate(1.24 349.14)">L<tspan class="cls-8" x="34.58" y="0">A</tspan><tspan class="cls-9" x="71.87" y="0">WRENCE</tspan></text>
    <text class="cls-10" transform="translate(0.68 386.78)">S<tspan class="cls-11" x="49.48" y="0">T</tspan><tspan class="cls-12" x="97.25" y="0">A</tspan><tspan class="cls-13" x="145.34" y="0">TION</tspan></text>
  </g>
  <polygon class="cls-1" points="1005.56 203.34 1038.14 190.4 1038.14 267.03 1018.22 269.24 1018.28 226.33 1020.1 225.81 1020.07 218.34 1007.18 215.05 1002.97 216.49 1002.97 207.73 1005.52 206.78 1005.56 203.34"/>
  <polygon class="cls-14" points="1038.14 190.4 1041.55 191.69 1041.55 263.52 1041.55 267.39 1038.14 267.03 1038.14 190.4"/>
  <polygon class="cls-1" points="936.15 221.78 988.77 198.11 1005.56 203.34 1005.52 206.78 988.71 201.77 936.15 224.58 936.15 221.78"/>
  <polygon class="cls-15" points="936.94 224.49 944.77 226.13 944.77 224.58 987.97 207.13 997.7 209.76 1005.52 206.78 988.71 201.77 936.94 224.49"/>
  <polygon class="cls-15" points="944.77 224.58 944.77 236.32 988.59 221.38 988.59 207.3 987.97 207.13 944.77 224.58"/>
  <polygon class="cls-14" points="988.85 207.64 997.72 210.03 1002.97 208.03 1002.97 216.49 988.84 221.29 988.85 207.64"/>
  <polygon class="cls-1" points="1007.18 215.05 1020.07 218.34 1020.1 225.81 1007.18 222.81 946.69 241.45 946.66 285.65 1007.28 282.83 1007.28 290.63 941.31 291.51 941.31 237.52 1007.18 215.05"/>
  <polygon class="cls-14" points="1020.17 225.85 1017.91 226.65 1007.85 224.26 949.13 241.76 949.08 285.54 946.66 285.65 946.69 241.47 1007.18 222.81 1020.17 225.85"/>
  <polygon class="cls-1" points="949.11 255.22 1008.2 242.04 1008.2 243.57 949.11 256.36 949.11 255.22"/>
  <polygon class="cls-14" points="1008.2 242.04 1018.26 243.76 1018.26 245.29 1008.2 243.57 1008.2 242.04"/>
  <polygon class="cls-1" points="949.1 271.77 1008.2 264.24 1008.2 265.8 949.1 272.96 949.1 271.77"/>
  <polygon class="cls-14" points="1008.2 264.24 1018.23 265.26 1018.22 266.73 1008.2 265.8 1008.2 264.24"/>
  <polyline class="cls-15" points="944.77 229.17 988.59 212.57 997.84 215.05 1003.21 213.19"/>
  <polyline class="cls-16" points="1037.78 191.34 1143.63 230.51 1143.63 272.96"/>
  <g>
    <polygon class="cls-17" points="116.17 482.48 148.75 469.54 148.75 546.17 128.84 548.38 128.9 505.47 130.71 504.95 130.68 497.48 117.8 494.19 113.59 495.62 113.59 486.87 116.14 485.92 116.17 482.48"/>
    <g class="cls-18">
      <polygon class="cls-17" points="148.75 469.54 152.17 470.83 152.17 542.66 152.17 546.53 148.75 546.17 148.75 469.54"/>
    </g>
    <polygon class="cls-17" points="46.77 500.92 99.39 477.25 116.17 482.48 116.14 485.92 99.33 480.91 46.77 503.72 46.77 500.92"/>
    <path class="cls-17" d="M-410.13,355.43l-8.9-1.87,52.57-23.07.09,0,17.52,5.22-8.59,3.27-9.73-2.63-43,17.35Zm-7.27-2,6.77,1.42v-1.41l.16-.06,43.28-17.48.08,0,9.65,2.61,7.06-2.69-16-4.77Z" transform="translate(465.77 150.14)"/>
    <path class="cls-17" d="M-410.63,365.67V353.41l.16-.06,43.28-17.48.88.24v14.45l-.17.06Zm.5-11.92V365l43.32-14.77V336.49l-.35-.09Z" transform="translate(465.77 150.14)"/>
    <g class="cls-18">
      <polygon class="cls-17" points="99.46 486.78 108.33 489.17 113.59 487.17 113.59 495.62 99.46 500.43 99.46 486.78"/>
    </g>
    <polygon class="cls-17" points="117.8 494.19 130.68 497.48 130.71 504.95 117.8 501.95 57.31 520.59 57.28 564.79 117.89 561.97 117.89 569.77 51.93 570.65 51.93 516.66 117.8 494.19"/>
    <g class="cls-18">
      <polygon class="cls-17" points="130.79 504.99 128.53 505.79 118.46 503.4 59.74 520.9 59.7 564.68 57.28 564.79 57.31 520.61 117.8 501.95 130.79 504.99"/>
    </g>
    <polygon class="cls-17" points="59.73 534.36 118.81 521.18 118.81 522.71 59.73 535.5 59.73 534.36"/>
    <g class="cls-18">
      <polygon class="cls-17" points="118.81 521.18 128.87 522.9 128.87 524.43 118.81 522.71 118.81 521.18"/>
    </g>
    <polygon class="cls-17" points="59.71 550.91 118.81 543.38 118.81 544.94 59.71 552.1 59.71 550.91"/>
    <g class="cls-18">
      <polygon class="cls-17" points="118.81 543.38 128.84 544.4 128.84 545.87 118.81 544.94 118.81 543.38"/>
    </g>
    <polygon class="cls-17" points="55.48 508.55 55.3 508.08 99.19 491.45 99.27 491.47 108.45 493.93 113.75 492.1 113.91 492.57 108.47 494.45 108.39 494.43 99.22 491.98 55.48 508.55"/>
    <polygon class="cls-17" points="254.75 552.1 253.75 552.1 253.75 510 148.45 470.35 148.8 469.42 254.75 509.3 254.75 552.1"/>
    <g>
      <path class="cls-17" d="M-456.77,469.86h16.55v5.69h-24v-37h7.41Z" transform="translate(465.77 150.14)"/>
      <path class="cls-17" d="M-410.34,467.58h-12l-2.49,8h-7.74l12.47-37h7.59l12.42,37h-7.74Zm-10.16-5.81h8.35l-4.09-13h-.15Z" transform="translate(465.77 150.14)"/>
      <path class="cls-17" d="M-363.14,463.67h.15l4.9-25.09h7.64l-8.63,37H-366l-6.8-24.35h-.15l-6.78,24.35h-6.88l-8.63-37h7.64l4.93,25.06h.15l6.65-25.06h6Z" transform="translate(465.77 150.14)"/>
      <path class="cls-17" d="M-333.9,460.77v14.78h-7.41v-37h12.8q6.32,0,9.89,2.88a9.75,9.75,0,0,1,3.57,8,8.11,8.11,0,0,1-1.51,4.91,10.52,10.52,0,0,1-4.41,3.34,8,8,0,0,1,4.71,3.22,10.23,10.23,0,0,1,1.43,5.59v2.72a13.44,13.44,0,0,0,.42,3.24A4.45,4.45,0,0,0-313,475v.53h-7.64a4.1,4.1,0,0,1-1.31-2.69,23.63,23.63,0,0,1-.29-3.63v-2.62a5.88,5.88,0,0,0-1.51-4.3,5.73,5.73,0,0,0-4.28-1.54Zm0-5.71h5.26a7,7,0,0,0,4.65-1.32,4.89,4.89,0,0,0,1.52-3.91,5.38,5.38,0,0,0-1.54-4,6.2,6.2,0,0,0-4.51-1.5h-5.38Z" transform="translate(465.77 150.14)"/>
      <path class="cls-17" d="M-281.85,459.3h-13.71v10.56h16.3v5.69H-303v-37h23.66v5.71h-16.25v9.29h13.71Z" transform="translate(465.77 150.14)"/>
      <path class="cls-17" d="M-239,475.55h-7.41l-14.9-24.93-.15,0v24.91h-7.41v-37h7.41l14.9,24.91.15,0V438.58H-239Z" transform="translate(465.77 150.14)"/>
      <path class="cls-17" d="M-199.24,463.31l.05.15q.1,5.92-3.61,9.27T-213,476.08a14.17,14.17,0,0,1-10.74-4.28,15.35,15.35,0,0,1-4.09-11.06v-7.34a15.63,15.63,0,0,1,4-11.06,13.59,13.59,0,0,1,10.46-4.3q6.75,0,10.56,3.3t3.71,9.29l-.05.15h-7.21q0-3.56-1.71-5.29t-5.29-1.74a6,6,0,0,0-5.19,2.68,11.85,11.85,0,0,0-1.87,6.92v7.39a11.5,11.5,0,0,0,2,7A6.4,6.4,0,0,0-213,470.4a6.51,6.51,0,0,0,5-1.74q1.64-1.74,1.64-5.34Z" transform="translate(465.77 150.14)"/>
      <path class="cls-17" d="M-167.56,459.3h-13.71v10.56H-165v5.69h-23.71v-37H-165v5.71h-16.25v9.29h13.71Z" transform="translate(465.77 150.14)"/>
    </g>
    <g>
      <path class="cls-17" d="M-451.15,507.49a3.69,3.69,0,0,0-1.43-3,14.63,14.63,0,0,0-4.87-2.21,16.27,16.27,0,0,1-5.71-2.57,5,5,0,0,1-2-4.18,5.4,5.4,0,0,1,2.19-4.42,8.74,8.74,0,0,1,5.59-1.73,8.28,8.28,0,0,1,5.75,2,6.2,6.2,0,0,1,2.11,5l0,.1h-1.8a5,5,0,0,0-1.68-3.85,6.21,6.21,0,0,0-4.34-1.53,6.5,6.5,0,0,0-4.29,1.3,4,4,0,0,0-1.55,3.18,3.63,3.63,0,0,0,1.41,2.94,14.42,14.42,0,0,0,5,2.15,16.24,16.24,0,0,1,5.66,2.66,5.12,5.12,0,0,1,1.95,4.19,5.21,5.21,0,0,1-2.28,4.41,9.48,9.48,0,0,1-5.74,1.67,10.44,10.44,0,0,1-6-1.76,5.67,5.67,0,0,1-2.5-5.15l0-.1h1.79a4.5,4.5,0,0,0,2,4.05,8.39,8.39,0,0,0,4.67,1.33,7.27,7.27,0,0,0,4.38-1.23A3.78,3.78,0,0,0-451.15,507.49Z" transform="translate(465.77 150.14)"/>
      <path class="cls-17" d="M-399.21,491.38h-8V513.2h-1.92V491.38h-8.27v-1.64h18.18Z" transform="translate(465.77 150.14)"/>
      <path class="cls-17" d="M-355.13,506.66h-10.3l-2.37,6.54h-2l8.62-23.46h1.82l8.56,23.46h-2Zm-9.68-1.72h9.06l-4.45-12.44h-.1Z" transform="translate(465.77 150.14)"/>
      <path class="cls-17" d="M-304,491.38h-8V513.2h-1.92V491.38h-8.27v-1.64H-304Z" transform="translate(465.77 150.14)"/>
      <path class="cls-17" d="M-268.48,513.2h-1.93V489.74h1.93Z" transform="translate(465.77 150.14)"/>
      <path class="cls-17" d="M-215.47,503.38a10.66,10.66,0,0,1-2.49,7.35,8.49,8.49,0,0,1-6.68,2.8,8.31,8.31,0,0,1-6.58-2.8,10.74,10.74,0,0,1-2.46-7.35v-3.82a10.8,10.8,0,0,1,2.45-7.35,8.27,8.27,0,0,1,6.57-2.82,8.49,8.49,0,0,1,6.69,2.82,10.67,10.67,0,0,1,2.5,7.35Zm-1.92-3.85a9.28,9.28,0,0,0-1.93-6.12,6.56,6.56,0,0,0-5.34-2.32,6.33,6.33,0,0,0-5.22,2.32,9.47,9.47,0,0,0-1.87,6.12v3.85a9.49,9.49,0,0,0,1.88,6.16,6.35,6.35,0,0,0,5.23,2.32,6.54,6.54,0,0,0,5.34-2.31,9.38,9.38,0,0,0,1.91-6.16Z" transform="translate(465.77 150.14)"/>
      <path class="cls-17" d="M-163.89,513.2h-1.93l-13.33-20.08-.1,0V513.2h-1.93V489.74h1.93l13.33,20,.1,0v-20h1.93Z" transform="translate(465.77 150.14)"/>
    </g>
  </g>
</svg>
