<svg xmlns="http://www.w3.org/2000/svg" viewBox="0 0 209 18.99">
  <defs>
    <style>
      .cls-1 {
        fill: #435060;
      }
    </style>
  </defs>
  <title>sy-divider_1</title>
  <g id="Layer_2" data-name="Layer 2">
    <g id="Layer_1-2" data-name="Layer 1">
      <g>
        <rect class="cls-1" y="8.5" width="80" height="1"/>
        <rect class="cls-1" x="129" y="8.5" width="80" height="1"/>
        <path class="cls-1" d="M112.14,1.11,113.5.93l1.77,7.69-4.08-.69ZM120,9.42,117.62,9,114.09.18,113.51,0l-2.22.36L109,7.55,97.3,5.6,89,6.91l1.19,1.76,6.69-.48L96.6,18.44h3L99.33,8.35l4.24.54L103.17,19h3.17L106,9.19l2.08.26-.23,8.46h2.29l-.22-8.23,4.19.52-.34,8h2.64l-.26-7.75,3.37.43Z"/>
      </g>
    </g>
  </g>
</svg>
