<svg xmlns="http://www.w3.org/2000/svg" viewBox="0 0 598.54 158">
  <defs>
    <style>
      .cls-1 {
        fill: #fff;
      }
    </style>
  </defs>
  <title>sy-logo</title>
  <g id="Layer_2" data-name="Layer 2">
    <g id="Layer_1-2" data-name="Layer 1">
      <g>
        <g>
          <path class="cls-1" d="M257.06,5.33a5.14,5.14,0,0,0-3.24-1.25c-.9,0-2.09.52-2.09,1.57s1.32,1.52,2.17,1.8l1.25.37c2.62.77,4.64,2.1,4.64,5.14A6.39,6.39,0,0,1,257.83,18a8.24,8.24,0,0,1-5.34,1.77,11.6,11.6,0,0,1-6.61-2.15l2.1-3.94a6.7,6.7,0,0,0,4.34,1.94c1.15,0,2.37-.57,2.37-1.89s-1.92-1.85-3-2.15c-3.07-.87-5.09-1.67-5.09-5.31,0-3.81,2.72-6.31,6.48-6.31A12.85,12.85,0,0,1,259,1.55Z"/>
          <polygon class="cls-1" points="273.96 4.64 273.96 7.78 279.32 7.78 279.32 11.92 273.96 11.92 273.96 19.3 269.07 19.3 269.07 0.5 279.87 0.5 279.87 4.64 273.96 4.64"/>
          <path class="cls-1" d="M302.22,9.91a4.7,4.7,0,0,1-9.4,0,4.7,4.7,0,1,1,9.4,0"/>
          <path class="cls-1" d="M324,5.33a5.14,5.14,0,0,0-3.24-1.25c-.9,0-2.1.52-2.1,1.57s1.32,1.52,2.17,1.8l1.25.37c2.62.77,4.64,2.1,4.64,5.14A6.39,6.39,0,0,1,324.73,18a8.25,8.25,0,0,1-5.34,1.77,11.59,11.59,0,0,1-6.61-2.15l2.1-3.94a6.7,6.7,0,0,0,4.34,1.94c1.15,0,2.37-.57,2.37-1.89s-1.92-1.85-3-2.15c-3.07-.87-5.09-1.67-5.09-5.31C313.54,2.49,316.26,0,320,0a12.85,12.85,0,0,1,5.89,1.55Z"/>
          <polygon class="cls-1" points="333.9 0.5 339.76 0.5 343.28 5.61 346.79 0.5 352.65 0.5 345.72 10.27 345.72 19.3 340.83 19.3 340.83 10.27 333.9 0.5"/>
        </g>
        <g>
          <path class="cls-1" d="M0,96.79,7.8,93.2a10.65,10.65,0,0,0,4.07,6.09,12.74,12.74,0,0,0,7.55,2.09A9.73,9.73,0,0,0,26.34,99a8.39,8.39,0,0,0,2.57-6.43q0-5.25-8.78-9.37-1.24-.61-1.89-.9Q8.29,77.49,5,73.6a14.19,14.19,0,0,1-3.3-9.51,15.19,15.19,0,0,1,5-11.81q5-4.52,13.08-4.52a22.25,22.25,0,0,1,11.13,2.55,13.45,13.45,0,0,1,6.2,7.31l-7.64,3.91a12.68,12.68,0,0,0-4-4.11,9.38,9.38,0,0,0-4.95-1.3,9.15,9.15,0,0,0-6.26,2,6.89,6.89,0,0,0-2.32,5.46q0,5.38,10.18,10l1.23.57q8.91,4.07,12.24,8a14.43,14.43,0,0,1,3.33,9.71q0,8.47-5.38,13.45t-14.54,5q-7.68,0-12.59-3.5A16.34,16.34,0,0,1,0,96.79"/>
          <polygon class="cls-1" points="80.83 108.72 80.83 49.1 90.61 49.1 90.61 71.09 120.17 71.09 120.17 49.1 129.94 49.1 129.94 108.72 120.17 108.72 120.17 79.77 90.61 79.77 90.61 108.72 80.83 108.72"/>
          <rect class="cls-1" x="175.4" y="49.11" width="9.77" height="59.62"/>
          <path class="cls-1" d="M239.79,82v26.75h-9.15V49.11h14.78a47.4,47.4,0,0,1,9.67.71,15.11,15.11,0,0,1,5.4,2.34,13.89,13.89,0,0,1,4.43,5.6,18.5,18.5,0,0,1,1.6,7.76,18.91,18.91,0,0,1-1.6,7.82A13.49,13.49,0,0,1,260.48,79a14.83,14.83,0,0,1-5.4,2.32,48.7,48.7,0,0,1-9.67.69h-5.63ZM240.4,74h2.5q8.13,0,10.84-1.75t2.71-6.19q0-4.76-2.9-6.72t-10.65-2h-2.5Z"/>
          <path class="cls-1" d="M319.27,108.72V81.44L299,49.1h10.27L321.9,69.34c.3.52.67,1.2,1.13,2s.91,1.75,1.38,2.73q.57-1.43,1.21-2.69A23,23,0,0,1,327,69.1l12.94-20h9.77L329,81.44v27.28Z"/>
          <path class="cls-1" d="M420.8,108.72,414,93.37H390.17l-7,15.35H372.92l29.11-62,29.07,62Zm-27-23.41h16.75l-6.16-13.6q-.53-1.3-1.11-3t-1.15-3.76q-.5,2-1,3.64t-1.13,3.11Z"/>
          <path class="cls-1" d="M477.77,82v26.67h-9.16V49.1h13.63a43.06,43.06,0,0,1,9.3.78,14.65,14.65,0,0,1,5.65,2.57A14.19,14.19,0,0,1,501.5,58,18.31,18.31,0,0,1,503,65.52q0,7.17-3.49,11.22T489.23,81.6l20.69,27.12h-11L478.87,82Zm.61-7.53h1.77q7.76,0,10.31-1.79T493,66.37q0-4.93-2.73-6.94t-10.12-2h-1.77Z"/>
          <path class="cls-1" d="M547.5,108.72V49.11h13.18q12.86,0,18.09,1.28a24.58,24.58,0,0,1,9.18,4.3,25,25,0,0,1,7.91,10.14A35.19,35.19,0,0,1,598.54,79,34.76,34.76,0,0,1,595.85,93a25.34,25.34,0,0,1-7.91,10.12,24.64,24.64,0,0,1-9,4.3q-5,1.28-15.67,1.28H547.5Zm9.77-8.75h8.21a42.71,42.71,0,0,0,10.16-.9,14.85,14.85,0,0,0,5.9-3,18,18,0,0,0,5.11-7.19,27,27,0,0,0,1.71-10,27,27,0,0,0-1.71-10,17.94,17.94,0,0,0-5.11-7.19,15.23,15.23,0,0,0-6.1-3,49.64,49.64,0,0,0-11.11-.9h-7.06Z"/>
          <rect class="cls-1" x="105.46" y="138.56" width="4.89" height="18.81"/>
          <polygon class="cls-1" points="118.78 138.56 123.67 138.56 132.63 150.06 132.68 150.06 132.68 138.56 137.57 138.56 137.57 157.38 132.68 157.38 123.72 145.85 123.67 145.85 123.67 157.38 118.78 157.38 118.78 138.56"/>
          <polygon class="cls-1" points="145.67 138.56 150.56 138.56 159.52 150.06 159.57 150.06 159.57 138.56 164.46 138.56 164.46 157.38 159.57 157.38 150.61 145.85 150.56 145.85 150.56 157.38 145.67 157.38 145.67 138.56"/>
          <path class="cls-1" d="M176.29,147.64a5.32,5.32,0,1,0,10.63,0,5.33,5.33,0,0,0-10.63,0m15.72,0a10.41,10.41,0,0,1-20.81,0c0-5.69,5-9.68,10.41-9.68s10.41,4,10.41,9.68"/>
          <polygon class="cls-1" points="206.12 149.99 210.68 138.56 216 138.56 207.96 157.38 204.17 157.38 196.26 138.56 201.57 138.56 206.12 149.99"/>
          <path class="cls-1" d="M228.35,144.38h0l-2,6h4.07Zm-3.42,9.73-1.3,3.27h-5.19l7.24-18.81H231l7.09,18.81h-5.22l-1.22-3.27Z"/>
          <polygon class="cls-1" points="250.53 157.38 245.63 157.38 245.63 142.71 241.59 142.71 241.59 138.56 254.57 138.56 254.57 142.71 250.53 142.71 250.53 157.38"/>
          <rect class="cls-1" x="261.72" y="138.56" width="4.89" height="18.81"/>
          <path class="cls-1" d="M278.82,147.64a5.32,5.32,0,1,0,10.63,0,5.33,5.33,0,0,0-10.63,0m15.72,0a10.41,10.41,0,0,1-20.81,0c0-5.69,5-9.68,10.41-9.68s10.41,4,10.41,9.68"/>
          <polygon class="cls-1" points="300.91 138.56 305.8 138.56 314.76 150.06 314.81 150.06 314.81 138.56 319.7 138.56 319.7 157.38 314.81 157.38 305.85 145.85 305.8 145.85 305.8 157.38 300.91 157.38 300.91 138.56"/>
          <path class="cls-1" d="M350.43,144.38h0l-2,6h4.07ZM347,154.11l-1.3,3.27h-5.19l7.24-18.81h5.34l7.09,18.81H355l-1.22-3.27Z"/>
          <polygon class="cls-1" points="372.6 157.38 367.71 157.38 367.71 142.71 363.67 142.71 363.67 138.56 376.64 138.56 376.64 142.71 372.6 142.71 372.6 157.38"/>
          <polygon class="cls-1" points="402.57 150.71 402.62 150.71 406.56 138.56 410.45 138.56 414.15 150.71 414.2 150.71 417.74 138.56 422.83 138.56 416.82 157.38 411.83 157.38 408.53 146.47 408.48 146.47 404.79 157.38 399.82 157.38 394.21 138.56 399.3 138.56 402.57 150.71"/>
          <path class="cls-1" d="M432.48,147.64a5.32,5.32,0,1,0,10.63,0,5.33,5.33,0,0,0-10.63,0m15.72,0a10.41,10.41,0,0,1-20.81,0c0-5.69,5-9.68,10.41-9.68s10.41,4,10.41,9.68"/>
          <path class="cls-1" d="M459.85,147h.48c1.59,0,3.39-.3,3.39-2.35s-1.8-2.35-3.39-2.35h-.48Zm10.76,10.38h-6.09l-4.62-7.24h-.05v7.24H455V138.56h7.31c3.72,0,6.54,1.77,6.54,5.79a5.06,5.06,0,0,1-4.12,5.32Z"/>
          <polygon class="cls-1" points="488.03 138.56 494.09 138.56 486.61 147.47 494.76 157.38 488.43 157.38 482.11 149.22 482.06 149.22 482.06 157.38 477.17 157.38 477.17 138.56 482.06 138.56 482.06 146.32 482.11 146.32 488.03 138.56"/>
        </g>
      </g>
    </g>
  </g>
</svg>
