<?xml version="1.0" encoding="utf-8"?>
<svg version="1.1" id="cushman-wakefield" xmlns="http://www.w3.org/2000/svg" xmlns:xlink="http://www.w3.org/1999/xlink" x="0px" y="0px" viewBox="0 0 400 83.9" style="enable-background:new 0 0 400 83.9;" xml:space="preserve">
	<style type="text/css">
		.st0{fill:#000000;}
		.st1{fill:#000000;}
	</style>
	<title>cw-logo-black</title>
	<g id="logo">
		<g id="mark">
			<polygon class="st0" points="58.9,0 58.9,83.9 83.6,83.9 83.6,18.7"/>
			<g>
				<polygon class="st0" points="49.1,7.4 49.1,83.9 54.1,83.9 54.1,3.6"/>
				<polygon class="st0" points="39.3,83.9 44.3,83.9 44.3,11 39.3,14.8"/>
				<polygon class="st0" points="29.4,83.9 34.5,83.9 34.5,18.4 29.4,22.3"/>
			</g>
			<polygon class="st0" points="88.3,37.6 88.3,83.9 113,83.9 113,56.3"/>
			<g>
				<polygon class="st0" points="19.6,44.9 19.6,83.9 24.7,83.9 24.7,41.1"/>
				<polygon class="st0" points="9.8,83.9 14.9,83.9 14.9,48.5 9.8,52.4"/>
				<polygon class="st0" points="0,83.9 5,83.9 5,56 0,59.8"/>
			</g>
		</g>
		<g id="type">
			<path class="st1" d="M176.7,46.7c-7.4,0-12-4.1-12-12.3V18.6h6.1v15.7c0,4.5,2.3,6.9,6,6.9c3.7,0,6-2.3,6-6.6V18.6h6.1v15.6
				C188.9,42.6,184.2,46.7,176.7,46.7z"/>
			<path class="st1" d="M207.2,46.7c-4.3,0-8.5-1.6-11.8-4.4L199,38c2.3,2.1,5.2,3.3,8.3,3.4c2.5,0,4-1,4-2.6v-0.1
				c0-1.5-1-2.3-5.6-3.5c-5.6-1.4-9.2-3.1-9.2-8.6v-0.1c0-5,4-8.3,9.7-8.3c3.7-0.1,7.4,1.2,10.3,3.5l-3.2,4.6
				c-2.1-1.6-4.6-2.6-7.2-2.8c-2.3,0-3.6,1.1-3.6,2.4V26c0,1.8,1.2,2.5,6,3.7c5.6,1.5,8.8,3.5,8.8,8.3v0.1
				C217.3,43.6,213.2,46.7,207.2,46.7z"/>
			<path class="st1" d="M242.9,46.3V35.2h-11.2v11.1h-6.1V18.6h6.1v10.9h11.2V18.6h6.1v27.6H242.9z"/>
			<path class="st1" d="M348.4,46.3l-13-17.3v17.3h-6V18.6h5.6l13,17.6V18.6h6v27.6H348.4z"/>
			<path class="st1" d="M229.4,83.9l-8.6-11.8l-3.2,3.3v8.5h-6.1V56.3h6.1v12.1l11.2-12.1h7.3L225,68l11.8,15.9L229.4,83.9z"/>
			<path class="st1" d="M243.6,83.9V56.3h20.7v5.4h-14.6v5.6h12.9v5.4h-12.9v5.8h14.8v5.4L243.6,83.9z"/>
			<path class="st1" d="M302.3,83.9V56.3h6.1v27.6H302.3z"/>
			<path class="st1" d="M317.4,83.9V56.2h20.7v5.4h-14.6v5.6h12.9v5.4h-12.9v5.8h14.8v5.4L317.4,83.9z"/>
			<path class="st1" d="M347.3,83.9V56.3h6.1v22.1h13.8v5.5H347.3z"/>
			<path class="st1" d="M385.3,83.9h-10.8V56.3h10.8c8.7,0,14.7,6,14.7,13.7v0.1C400,77.9,394,83.9,385.3,83.9z M393.6,70.1
				c0.2-4.4-3.1-8.1-7.5-8.3c-0.3,0-0.5,0-0.8,0h-4.7v16.7h4.7C390.3,78.4,393.6,75.1,393.6,70.1L393.6,70.1z"/>
			<path class="st1" d="M146.7,41.1c-5.1,0.1-8.4-3.8-8.5-8.5v-0.1c-0.1-4.7,3.2-8.7,8.1-8.8c2.6-0.1,5.1,1.1,6.8,3.1l3.9-4.6
				c-2.9-2.7-6.7-4.2-10.7-4.1c-8.5,0.1-14.6,6.7-14.5,14.5v0.1c0.1,7.8,6.4,14.1,14.9,14c4.2-0.1,8.1-1.9,10.9-5l-4.1-4
				C151.9,39.8,149.4,41.1,146.7,41.1z"/>
			<polygon class="st1" points="279.9,18.6 286.4,18.6 286.4,46.3 280.6,46.3 280.6,28.2 272.8,40 272.6,40 264.7,28.2 264.7,46.3
				258.9,46.3 258.9,18.6 265.5,18.6 272.7,30.2"/>
			<path class="st1" d="M305,18.6l-11.8,27.6h6.2l2.5-6.2h11.7l2.5,6.2h6.4l-11.8-27.6L305,18.6z M304.1,34.7l3.7-9l3.7,9H304.1z"/>
			<path class="st1" d="M187.2,56.3l-11.8,27.6h6.2l2.5-6.2h11.7l2.5,6.2h6.4L193,56.3H187.2z M186.4,72.3l3.7-9l3.7,9H186.4z"/>
			<path class="st1" d="M279.1,61.8v5.9h13v5.5h-13v10.7H273V56.3h21.1v5.5H279.1z"/>
			<polygon class="st1" points="168.9,56.3 162.5,75.5 156.1,56.3 150.3,56.3 143.9,75.5 137.5,56.3 130.9,56.3 140.9,83.9
				146.9,83.9 153.2,64.9 159.4,83.9 165.5,83.9 175.5,56.3"/>
			<path class="st1" d="M392.7,39.5l3.2-3.5l-3.8-4.1l-2.8,3.3l-3.4-4.1c2.3-1.3,3.7-3.7,3.7-6.3c-0.2-3.8-3.4-6.7-7.1-6.6
				c0,0,0,0,0,0c-3.7-0.1-6.7,2.9-6.7,6.5c0,0.1,0,0.3,0,0.4c0.1,2.1,1.5,3.8,2.5,5c-3.3,1.4-5.5,4.5-5.5,8.1
				c0.3,4.8,4.3,8.6,9.1,8.6c2.9-0.1,5.6-1.4,7.6-3.5l2.5,3h7.1L392.7,39.5z M385.9,39.2c-1,1.4-2.5,2.4-4.2,2.6
				c-2,0-3.7-1.6-3.8-3.6c0-1.2,0.9-3.1,3.6-4.3L385.9,39.2z M382.4,27.7c-0.8-0.7-1.5-1.6-1.8-2.6c-0.2-1,0.5-2,1.5-2.2
				c0.1,0,0.2,0,0.3,0c1.1-0.1,2,0.7,2.1,1.8c0,0.1,0,0.2,0,0.3C384.7,26.2,383.4,27.3,382.4,27.7L382.4,27.7z"/>
		</g>
	</g>
</svg>
