<?xml version="1.0" encoding="utf-8"?>
<svg version="1.1" id="embarcadero-capital-partners" xmlns="http://www.w3.org/2000/svg" xmlns:xlink="http://www.w3.org/1999/xlink" x="0px" y="0px" viewBox="0 0 85 16" style="enable-background:new 0 0 85 16;" xml:space="preserve">
	<style type="text/css">
		.st0{fill:#008CA7;}
		.st1{filter:url(#Adobe_OpacityMaskFilter);}
		.st2{fill:#FFFFFF;}
		.st3{mask:url(#embarcadero-logo-b);fill:#008CA7;}
		.st4{filter:url(#Adobe_OpacityMaskFilter_1_);}
		.st5{mask:url(#embarcadero-logo-d);fill:#008CA7;}
	</style>
	<g id="embarcadero_1_">
		<polygon class="st0" points="0,0.1 4.7,0.1 4.7,1.1 1.1,1.1 1.1,3.7 4.1,3.7 4.1,4.7 1.1,4.7 1.1,7.3 4.9,7.3 4.9,8.3 0,8.3 	"/>
		<path class="st0" d="M7,0.1h1.2l1.9,4.4c0.2,0.4,0.4,1.1,0.4,1.1h0c0,0,0.2-0.6,0.4-1.1l1.9-4.4H14l0.7,8.1h-1.1l-0.4-5.1
			c0-0.5,0-1.2,0-1.2h0c0,0-0.2,0.7-0.4,1.2L11,6.8h-1L8.4,3.1C8.2,2.7,7.9,1.9,7.9,1.9h0c0,0,0,0.7,0,1.2L7.5,8.3H6.3L7,0.1z
			 M16.6,0.1h2.8c0.9,0,1.8,0.4,2.2,1.2C22,2.3,21.7,3.5,20.8,4v0c1.1,0.3,1.6,1.7,1.2,2.8c-0.4,1.1-1.4,1.5-2.5,1.5h-2.9V0.1z
			 M19.4,3.6c1.6,0,1.6-2.4,0-2.4h-1.7v2.4H19.4z M19.5,7.3c1.8,0,1.8-2.8,0-2.8h-1.8v2.8H19.5z M27.9,5.9h-3.1L24,8.3h-1.2l2.9-8.1
			H27l2.9,8.1h-1.2L27.9,5.9z M26.4,1.3c0,0-0.2,0.7-0.3,1.2L25.1,5h2.5l-0.9-2.6C26.6,2,26.4,1.3,26.4,1.3L26.4,1.3z M31.1,0.1h2.5
			c0.9,0,1.2,0.1,1.5,0.2C37,1,36.9,4.1,35,4.7v0c0,0,0.1,0.1,0.2,0.4L37,8.3h-1.3L34,5h-1.7v3.2h-1.1V0.1z M33.9,4
			c1.4,0,2.1-2,0.8-2.7c-0.2-0.1-0.5-0.2-1.1-0.2h-1.3V4H33.9z M42.1,0c2,0,3,1.1,3,1.1l-0.6,0.9c-2.1-1.8-5.5-0.6-5.4,2.4
			c0.1,2.9,3.5,4,5.5,2l0.6,0.8c-1.8,1.9-5.3,1.6-6.7-0.6C36.9,3.7,38.8,0,42.1,0 M50.8,5.9h-3.1L47,8.3h-1.2l2.9-8.1h1.2l2.9,8.1
			h-1.2L50.8,5.9z M49.3,1.3c0,0-0.2,0.7-0.3,1.2L48.1,5h2.5l-0.9-2.6C49.5,2,49.3,1.3,49.3,1.3L49.3,1.3z M54,0.1h2.7
			c2.4,0,4.1,1.6,4.1,4.1c0,2.4-1.7,4.1-4.1,4.1H54V0.1z M56.7,7.3c4,0,4-6.2,0-6.2h-1.5v6.2H56.7z"/>
		<polygon class="st0" points="62.6,0.1 67.3,0.1 67.3,1.1 63.7,1.1 63.7,3.7 66.6,3.7 66.6,4.7 63.7,4.7 63.7,7.3 67.5,7.3
			67.5,8.3 62.6,8.3 	"/>
		<path class="st0" d="M69.2,0.1h2.5c0.9,0,1.2,0.1,1.5,0.2C75,1,75,4.1,73.1,4.7v0c0,0,0.1,0.1,0.2,0.4L75,8.3h-1.3L72,5h-1.7v3.2
			h-1.1V0.1z M71.9,4c1.4,0,2.1-2,0.8-2.7c-0.2-0.1-0.5-0.2-1.1-0.2h-1.3V4H71.9z"/>
		<g transform="translate(75 .63)">
			<defs>
				<filter id="Adobe_OpacityMaskFilter" filterUnits="userSpaceOnUse" x="1" y="-0.6" width="8.3" height="8.4">
					<feColorMatrix  type="matrix" values="1 0 0 0 0  0 1 0 0 0  0 0 1 0 0  0 0 0 1 0"/>
				</filter>
			</defs>
			<mask maskUnits="userSpaceOnUse" x="1" y="-0.6" width="8.3" height="8.4" id="embarcadero-logo-b">
				<g class="st1">
					<polygon id="embarcadero-logo-a" class="st2" points="9.3,-0.6 9.3,7.8 1,7.8 1,-0.6 				"/>
				</g>
			</mask>
			<path class="st3" d="M5.2-0.6c2.4,0,4.2,1.9,4.2,4.3C9.3,5.9,7.5,7.8,5.2,7.8c-2.2,0-4-1.8-4.2-4C0.9,1.4,2.8-0.6,5.2-0.6
				 M5.2,6.7c3.9,0,3.9-6.3,0-6.3C1.2,0.4,1.3,6.7,5.2,6.7"/>
		</g>
	</g>
	<g id="capital-partners">
		<g id="capital">
			<g transform="translate(4 12.63)">
				<defs>
					<filter id="Adobe_OpacityMaskFilter_1_" filterUnits="userSpaceOnUse" x="0.1" y="-0.1" width="2.8" height="3.1">
						<feColorMatrix  type="matrix" values="1 0 0 0 0  0 1 0 0 0  0 0 1 0 0  0 0 0 1 0"/>
					</filter>
				</defs>
				<mask maskUnits="userSpaceOnUse" x="0.1" y="-0.1" width="2.8" height="3.1" id="embarcadero-logo-d">
					<g class="st4">
						<polygon id="embarcadero-logo-c" class="st2" points="2.9,3 0.1,3 0.1,-0.1 2.9,-0.1 					"/>
					</g>
				</mask>
				<path class="st5" d="M0.1,1.5c0-1.4,2-2.2,2.8-0.9L2.5,0.8C1.9-0.1,0.7,0.6,0.7,1.5c0,0.9,1.3,1.6,1.8,0.6l0.4,0.2
					C2.1,3.6,0.1,2.9,0.1,1.5"/>
			</g>
			<path class="st0" d="M11.8,15.6L11.6,15h-1.4L10,15.6H9.4l1.2-3h0.7l1.2,3H11.8z M10.9,13.1l-0.5,1.4h1.1L10.9,13.1z M15.1,15.6
				v-3h1.3c1.3,0,1.3,1.9,0,1.9h-0.8v1.1H15.1z M16.8,13.5c0-0.3-0.2-0.5-0.5-0.5h-0.7V14h0.7C16.6,14,16.8,13.8,16.8,13.5L16.8,13.5
				z"/>
			<polygon class="st0" points="20.2,15.6 20.7,15.6 20.7,12.6 20.2,12.6 		"/>
			<polygon class="st0" points="24.4,15.6 24.4,13 23.5,13 23.5,12.6 25.9,12.6 25.9,13 25,13 25,15.6 		"/>
			<path class="st0" d="M30.5,15.6L30.3,15h-1.4l-0.2,0.6h-0.6l1.2-3h0.7l1.2,3H30.5z M29.6,13.1L29,14.5h1.1L29.6,13.1z"/>
			<polygon class="st0" points="33.7,15.6 33.7,12.6 34.3,12.6 34.3,15.1 35.6,15.1 35.6,15.6 		"/>
		</g>
		<g id="partners">
			<path class="st0" d="M42,15.6v-3h1.3c1.3,0,1.3,1.9,0,1.9h-0.8v1.1H42z M43.7,13.5c0-0.3-0.2-0.5-0.5-0.5h-0.7V14h0.7
				C43.5,14,43.7,13.8,43.7,13.5L43.7,13.5z M48.8,15.6L48.6,15h-1.4L47,15.6h-0.6l1.2-3h0.7l1.2,3H48.8z M47.9,13.1l-0.5,1.4h1.1
				L47.9,13.1z M53.8,15.6l-0.7-1.1h-0.5v1.1h-0.5v-3h1.3c1.1,0,1.4,1.6,0.3,1.8l0.7,1.2H53.8z M53.9,13.5c0-0.3-0.2-0.5-0.5-0.5
				h-0.7v1h0.7C53.7,14,53.9,13.8,53.9,13.5L53.9,13.5z"/>
			<polygon class="st0" points="58,15.6 58,13 57.1,13 57.1,12.6 59.5,12.6 59.5,13 58.5,13 58.5,15.6 		"/>
			<polygon class="st0" points="64.4,15.6 62.8,13.4 62.8,15.6 62.3,15.6 62.3,12.6 62.8,12.6 64.3,14.7 64.3,12.6 64.9,12.6
				64.9,15.6 		"/>
			<polygon class="st0" points="67.9,15.6 67.9,12.6 69.9,12.6 69.9,13 68.4,13 68.4,13.8 69.9,13.8 69.9,14.3 68.4,14.3 68.4,15.1
				69.9,15.1 69.9,15.6 		"/>
			<path class="st0" d="M74.5,15.6l-0.7-1.1h-0.5v1.1h-0.5v-3h1.3c1.1,0,1.4,1.6,0.3,1.8l0.7,1.2H74.5z M74.6,13.5
				c0-0.3-0.2-0.5-0.5-0.5h-0.7v1h0.7C74.4,14,74.6,13.8,74.6,13.5L74.6,13.5z M77.8,15.2l0.3-0.4c0.3,0.3,1.8,0.7,1.5-0.1
				c-0.1-0.4-0.9-0.4-1.2-0.5C77,13.4,79,11.8,80.1,13l-0.3,0.4c-0.4-0.4-1.8-0.4-1.3,0.2c0.2,0.3,1,0.2,1.3,0.5
				C81.2,15.1,78.8,16.2,77.8,15.2"/>
		</g>
	</g>
</svg>
