<svg xmlns="http://www.w3.org/2000/svg" viewBox="0 0 409 66.88">
  <defs>
    <style>
      .cls-1 {
        fill: #fff;
      }
    </style>
  </defs>
  <title>fivepoint-logo</title>
  <g id="Layer_2" data-name="Layer 2">
    <g id="Layer_1-2" data-name="Layer 1">
      <g>
        <path class="cls-1" d="M0,20a.92.92,0,0,1,.92-.92H20.7a.92.92,0,0,1,.92.92v4a.92.92,0,0,1-.92.92H6.32V34h12a1,1,0,0,1,.92.92v4a1,1,0,0,1-.92.92h-12V52.16a1,1,0,0,1-.92.92H.92A.92.92,0,0,1,0,52.16Z"/>
        <rect class="cls-1" x="44.9" y="19.08" width="6.36" height="34.01" rx="0.92" ry="0.92"/>
        <path class="cls-1" d="M138,20a.92.92,0,0,1,.92-.92H158.7a.92.92,0,0,1,.92.92v4a.92.92,0,0,1-.92.92H144.32v8h12a1,1,0,0,1,.92.92v4a.92.92,0,0,1-.92.92h-12v8.5H158.7a.92.92,0,0,1,.92.92v4a.92.92,0,0,1-.92.92H138.93a.92.92,0,0,1-.92-.92Z"/>
        <path class="cls-1" d="M184.07,20a.92.92,0,0,1,.92-.92h11.42a10.83,10.83,0,1,1,0,21.67h-6.07V52.16a1,1,0,0,1-.92.92H185a.92.92,0,0,1-.92-.92Zm12,14.82a5,5,0,0,0,5-5.05A4.85,4.85,0,0,0,196,25h-5.63v9.77Z"/>
        <path class="cls-1" d="M245.34,18.59A17.49,17.49,0,1,1,227.9,36.13a17.46,17.46,0,0,1,17.44-17.54m0,28.66a11.17,11.17,0,1,0-11.13-11.13,11.2,11.2,0,0,0,11.13,11.13"/>
        <rect class="cls-1" x="286.7" y="19.08" width="6.36" height="34.01" rx="0.92" ry="0.92"/>
        <path class="cls-1" d="M319.4,19.46a.91.91,0,0,1,.92-.87h1.22l20.21,21.47h0V20a.92.92,0,0,1,.92-.92h4.47a1,1,0,0,1,.92.92v32.7a.91.91,0,0,1-.92.87H346l-20.31-22.3h0V52.16a.92.92,0,0,1-.92.92h-4.42a1,1,0,0,1-.92-.92Z"/>
        <path class="cls-1" d="M379,24.9h-7.43a.92.92,0,0,1-.92-.92V20a.92.92,0,0,1,.92-.92h21.23a.92.92,0,0,1,.92.92v4a.92.92,0,0,1-.92.92h-7.43V52.16a1,1,0,0,1-.92.92h-4.52a1,1,0,0,1-.92-.92Z"/>
        <path class="cls-1" d="M94.63.9a32.54,32.54,0,1,0,32.54,32.54A32.57,32.57,0,0,0,94.63.9m0,66a33.44,33.44,0,1,1,33.44-33.44A33.48,33.48,0,0,1,94.63,66.88"/>
        <path class="cls-1" d="M102.26,21.8H87.55L94.91,41Zm10.9-2.66h-37a1.33,1.33,0,1,0,0,2.66h5.5L93.32,50.42H83.47a1.33,1.33,0,0,0,0,2.66H105.8a1.33,1.33,0,1,0,0-2.66H96.49l11.69-28.58v0h5a1.33,1.33,0,0,0,0-2.66m11.31,14.3A29.83,29.83,0,1,1,94.63,3.6a29.83,29.83,0,0,1,29.83,29.83"/>
        <path class="cls-1" d="M405.57,22.58a.6.6,0,0,0,.64-.6.58.58,0,0,0-.64-.6h-1v1.21ZM403.86,21a.2.2,0,0,1,.2-.2h1.51a1.2,1.2,0,0,1,1.3,1.19,1.13,1.13,0,0,1-.86,1.16l.64,1.25a.2.2,0,0,1-.18.29h-.36a.25.25,0,0,1-.19-.15l-.59-1.33h-.78v1.27a.2.2,0,0,1-.2.2h-.28a.2.2,0,0,1-.2-.2Zm1.33,4.92A3.17,3.17,0,1,0,402,22.74a3.16,3.16,0,0,0,3.17,3.17m0-7a3.81,3.81,0,1,1-3.81,3.82,3.83,3.83,0,0,1,3.81-3.82"/>
      </g>
    </g>
  </g>
</svg>
